<?xml version="1.0" encoding="UTF-8"?>
<svg xmlns="http://www.w3.org/2000/svg" xmlns:xlink="http://www.w3.org/1999/xlink" width="200px" height="26px" viewBox="0 0 118 26" version="1.1">
<g id="surface1">
<path style=" stroke:none;fill-rule:nonzero;fill:rgb(13.72549%,12.156863%,12.54902%);fill-opacity:1;" d="M 81.925781 8.347656 C 81.375 8.347656 80.917969 8.546875 80.550781 8.945312 C 80.179688 9.34375 80 9.882812 80 10.570312 L 80 11.632812 L 78.953125 11.632812 L 78.953125 12.527344 L 80 12.527344 L 80 18.183594 L 80.964844 18.183594 L 80.964844 12.527344 L 83.75 12.527344 L 83.75 16.398438 C 83.75 17.679688 84.28125 18.324219 85.347656 18.324219 C 85.726562 18.324219 86.039062 18.253906 86.269531 18.117188 L 86.269531 17.222656 C 86.089844 17.367188 85.875 17.4375 85.628906 17.4375 C 85.304688 17.4375 85.074219 17.34375 84.933594 17.15625 C 84.796875 16.96875 84.726562 16.65625 84.726562 16.21875 L 84.726562 12.527344 L 86.269531 12.527344 L 86.269531 11.632812 L 84.726562 11.632812 L 84.726562 9.695312 L 83.75 10.03125 L 83.75 11.632812 L 80.964844 11.632812 L 80.964844 10.621094 C 80.964844 9.699219 81.300781 9.238281 81.984375 9.238281 C 82.226562 9.238281 82.449219 9.289062 82.640625 9.40625 L 82.640625 8.460938 C 82.464844 8.382812 82.226562 8.347656 81.925781 8.347656 Z M 47.832031 8.609375 C 47.660156 8.609375 47.503906 8.671875 47.382812 8.800781 C 47.257812 8.933594 47.199219 9.097656 47.199219 9.292969 C 47.199219 9.492188 47.257812 9.652344 47.382812 9.78125 C 47.503906 9.910156 47.660156 9.96875 47.832031 9.96875 C 48.011719 9.96875 48.167969 9.90625 48.292969 9.773438 C 48.417969 9.640625 48.480469 9.480469 48.480469 9.292969 C 48.480469 9.097656 48.417969 8.933594 48.292969 8.800781 C 48.175781 8.675781 48.007812 8.605469 47.832031 8.609375 Z M 93.625 8.859375 C 93.253906 8.859375 92.886719 8.90625 92.53125 9.003906 C 92.175781 9.101562 91.863281 9.25 91.585938 9.449219 C 91.308594 9.652344 91.078125 9.914062 90.914062 10.214844 C 90.742188 10.523438 90.652344 10.890625 90.652344 11.308594 C 90.652344 11.652344 90.714844 11.941406 90.820312 12.195312 C 90.929688 12.449219 91.082031 12.679688 91.269531 12.875 C 91.457031 13.078125 91.691406 13.261719 91.949219 13.425781 C 92.21875 13.601562 92.492188 13.765625 92.777344 13.917969 C 93.039062 14.0625 93.304688 14.210938 93.566406 14.359375 C 93.808594 14.5 94.019531 14.644531 94.199219 14.792969 C 94.378906 14.945312 94.519531 15.117188 94.617188 15.300781 C 94.71875 15.484375 94.773438 15.691406 94.773438 15.941406 C 94.773438 16.402344 94.617188 16.757812 94.316406 17.003906 C 94.011719 17.246094 93.546875 17.367188 92.929688 17.367188 C 92.734375 17.367188 92.539062 17.347656 92.347656 17.3125 C 92.136719 17.273438 91.9375 17.214844 91.726562 17.144531 C 91.523438 17.078125 91.324219 16.988281 91.132812 16.886719 C 90.945312 16.785156 90.777344 16.671875 90.640625 16.542969 L 90.640625 17.8125 C 90.75 17.894531 90.902344 17.96875 91.085938 18.03125 C 91.273438 18.097656 91.46875 18.148438 91.675781 18.195312 C 91.882812 18.238281 92.085938 18.273438 92.285156 18.296875 C 92.484375 18.320312 92.648438 18.335938 92.78125 18.335938 C 93.1875 18.335938 93.570312 18.289062 93.933594 18.203125 C 94.296875 18.113281 94.625 17.976562 94.902344 17.78125 C 95.183594 17.585938 95.40625 17.328125 95.570312 17.015625 C 95.734375 16.703125 95.816406 16.316406 95.816406 15.863281 C 95.816406 15.523438 95.757812 15.21875 95.636719 14.957031 C 95.515625 14.691406 95.351562 14.453125 95.144531 14.238281 C 94.929688 14.011719 94.6875 13.8125 94.425781 13.640625 C 94.140625 13.457031 93.851562 13.285156 93.550781 13.128906 C 93.285156 12.988281 93.023438 12.84375 92.761719 12.695312 C 92.535156 12.5625 92.347656 12.429688 92.1875 12.289062 C 92.027344 12.148438 91.90625 11.992188 91.824219 11.820312 C 91.742188 11.652344 91.703125 11.445312 91.703125 11.210938 C 91.703125 10.960938 91.757812 10.746094 91.863281 10.570312 C 91.96875 10.394531 92.113281 10.253906 92.285156 10.144531 C 92.453125 10.03125 92.648438 9.953125 92.867188 9.902344 C 93.082031 9.855469 93.300781 9.832031 93.519531 9.832031 C 94.308594 9.832031 94.957031 10.015625 95.460938 10.390625 L 95.460938 9.183594 C 95.074219 8.96875 94.464844 8.859375 93.625 8.859375 Z M 36.511719 9.007812 L 36.511719 18.179688 L 37.476562 18.179688 L 37.476562 12.039062 C 37.476562 11.210938 37.457031 10.613281 37.425781 10.246094 L 37.449219 10.246094 C 37.539062 10.667969 37.621094 10.980469 37.703125 11.1875 L 40.613281 18.179688 L 41.105469 18.179688 L 44.023438 11.132812 C 44.097656 10.953125 44.1875 10.660156 44.28125 10.246094 L 44.308594 10.246094 C 44.253906 10.949219 44.21875 11.542969 44.21875 12.027344 L 44.21875 18.183594 L 45.214844 18.183594 L 45.214844 9.011719 L 43.957031 9.011719 L 41.285156 15.378906 C 41.183594 15.625 41.050781 16 40.878906 16.503906 L 40.847656 16.503906 C 40.785156 16.261719 40.652344 15.894531 40.453125 15.402344 L 37.832031 9.011719 L 36.511719 9.011719 Z M 98.683594 9.695312 L 97.707031 10.03125 L 97.707031 11.632812 L 96.65625 11.632812 L 96.65625 12.527344 L 97.707031 12.527344 L 97.707031 16.398438 C 97.707031 17.679688 98.242188 18.324219 99.308594 18.324219 C 99.6875 18.324219 99.984375 18.253906 100.214844 18.117188 L 100.214844 17.222656 C 100.039062 17.367188 99.820312 17.4375 99.574219 17.4375 C 99.253906 17.4375 99.027344 17.34375 98.890625 17.15625 C 98.75 16.96875 98.683594 16.65625 98.683594 16.21875 L 98.683594 12.527344 L 100.214844 12.527344 L 100.214844 11.632812 L 98.683594 11.632812 Z M 53.042969 11.476562 C 52.082031 11.476562 51.308594 11.808594 50.730469 12.460938 C 50.15625 13.117188 49.863281 13.980469 49.863281 15.058594 C 49.863281 16.027344 50.132812 16.816406 50.667969 17.421875 C 51.199219 18.03125 51.90625 18.335938 52.777344 18.335938 C 53.417969 18.335938 53.972656 18.179688 54.4375 17.878906 L 54.4375 16.878906 C 53.96875 17.257812 53.46875 17.449219 52.9375 17.449219 C 52.308594 17.449219 51.804688 17.230469 51.429688 16.789062 C 51.054688 16.34375 50.867188 15.734375 50.867188 14.96875 C 50.867188 14.1875 51.070312 13.5625 51.46875 13.082031 C 51.867188 12.605469 52.378906 12.363281 53.003906 12.363281 C 53.519531 12.363281 54 12.527344 54.453125 12.871094 L 54.453125 11.800781 C 54.042969 11.589844 53.578125 11.476562 53.042969 11.476562 Z M 62.863281 11.476562 C 61.910156 11.476562 61.152344 11.785156 60.589844 12.402344 C 60.03125 13.023438 59.75 13.882812 59.75 14.980469 C 59.75 15.992188 60.019531 16.804688 60.558594 17.417969 C 61.097656 18.027344 61.820312 18.335938 62.71875 18.335938 C 63.644531 18.335938 64.375 18.019531 64.925781 17.390625 C 65.476562 16.761719 65.753906 15.921875 65.753906 14.878906 C 65.753906 13.8125 65.5 12.980469 64.992188 12.378906 C 64.480469 11.777344 63.769531 11.476562 62.863281 11.476562 Z M 69.292969 11.476562 C 68.996094 11.476562 68.707031 11.519531 68.425781 11.601562 C 68.144531 11.683594 67.894531 11.804688 67.675781 11.964844 C 67.457031 12.125 67.28125 12.324219 67.152344 12.558594 C 67.019531 12.796875 66.957031 13.0625 66.957031 13.371094 C 66.957031 13.621094 66.992188 13.84375 67.058594 14.03125 C 67.128906 14.21875 67.234375 14.390625 67.371094 14.535156 C 67.507812 14.683594 67.671875 14.8125 67.875 14.929688 C 68.078125 15.046875 68.324219 15.164062 68.59375 15.28125 C 68.789062 15.359375 68.96875 15.4375 69.136719 15.511719 C 69.292969 15.582031 69.441406 15.664062 69.578125 15.765625 C 69.695312 15.855469 69.796875 15.964844 69.875 16.089844 C 69.949219 16.210938 69.984375 16.355469 69.984375 16.53125 C 69.984375 17.144531 69.554688 17.449219 68.699219 17.449219 C 68.058594 17.449219 67.476562 17.242188 66.945312 16.820312 L 66.945312 17.941406 C 67.40625 18.203125 67.949219 18.335938 68.574219 18.335938 C 68.890625 18.335938 69.195312 18.296875 69.488281 18.222656 C 69.761719 18.148438 70.023438 18.027344 70.257812 17.863281 C 70.476562 17.710938 70.65625 17.507812 70.785156 17.273438 C 70.917969 17.035156 70.988281 16.75 70.988281 16.425781 C 70.988281 16.164062 70.945312 15.9375 70.863281 15.746094 C 70.78125 15.554688 70.664062 15.378906 70.515625 15.234375 C 70.363281 15.085938 70.179688 14.957031 69.964844 14.839844 C 69.730469 14.710938 69.488281 14.597656 69.242188 14.496094 C 69.039062 14.410156 68.855469 14.335938 68.695312 14.261719 C 68.554688 14.199219 68.417969 14.117188 68.296875 14.015625 C 68.183594 13.925781 68.101562 13.828125 68.042969 13.710938 C 67.984375 13.597656 67.953125 13.457031 67.953125 13.285156 C 67.953125 13.148438 67.984375 13.023438 68.042969 12.910156 C 68.101562 12.796875 68.183594 12.695312 68.28125 12.617188 C 68.386719 12.539062 68.519531 12.476562 68.664062 12.429688 C 68.8125 12.386719 68.980469 12.367188 69.164062 12.367188 C 69.746094 12.367188 70.253906 12.523438 70.703125 12.839844 L 70.703125 11.777344 C 70.285156 11.578125 69.820312 11.476562 69.292969 11.476562 Z M 75.171875 11.476562 C 74.21875 11.476562 73.460938 11.785156 72.902344 12.402344 C 72.34375 13.023438 72.0625 13.882812 72.0625 14.980469 C 72.0625 15.992188 72.332031 16.804688 72.871094 17.417969 C 73.40625 18.027344 74.128906 18.335938 75.03125 18.335938 C 75.957031 18.335938 76.6875 18.019531 77.238281 17.390625 C 77.785156 16.761719 78.066406 15.921875 78.066406 14.878906 C 78.066406 13.8125 77.8125 12.980469 77.300781 12.378906 C 76.792969 11.777344 76.082031 11.476562 75.171875 11.476562 Z M 104.226562 11.476562 C 103.273438 11.476562 102.515625 11.785156 101.957031 12.402344 C 101.394531 13.023438 101.113281 13.882812 101.113281 14.980469 C 101.113281 15.992188 101.386719 16.804688 101.921875 17.417969 C 102.460938 18.027344 103.183594 18.335938 104.085938 18.335938 C 105.007812 18.335938 105.742188 18.019531 106.289062 17.390625 C 106.839844 16.761719 107.117188 15.921875 107.117188 14.878906 C 107.117188 13.8125 106.863281 12.980469 106.355469 12.378906 C 105.84375 11.777344 105.136719 11.476562 104.226562 11.476562 Z M 115.316406 11.476562 C 114.515625 11.476562 113.839844 11.800781 113.304688 12.441406 C 112.765625 13.085938 112.496094 13.910156 112.496094 14.929688 C 112.496094 16.007812 112.738281 16.847656 113.230469 17.441406 C 113.722656 18.039062 114.410156 18.335938 115.269531 18.335938 C 116.152344 18.335938 116.863281 18.125 117.398438 17.707031 L 117.398438 16.722656 C 116.824219 17.210938 116.1875 17.449219 115.503906 17.449219 C 114.890625 17.449219 114.410156 17.25 114.058594 16.855469 C 113.710938 16.457031 113.527344 15.898438 113.511719 15.167969 L 117.8125 15.167969 L 117.8125 14.617188 C 117.8125 13.632812 117.601562 12.867188 117.164062 12.3125 C 116.730469 11.757812 116.113281 11.476562 115.316406 11.476562 Z M 58.527344 11.515625 C 58.175781 11.515625 57.855469 11.648438 57.570312 11.90625 C 57.285156 12.164062 57.070312 12.519531 56.929688 12.980469 L 56.902344 12.980469 L 56.902344 11.632812 L 55.925781 11.632812 L 55.925781 18.183594 L 56.902344 18.183594 L 56.902344 14.847656 C 56.902344 14.117188 57.042969 13.539062 57.324219 13.117188 C 57.605469 12.695312 57.949219 12.480469 58.367188 12.480469 C 58.6875 12.480469 58.9375 12.554688 59.109375 12.695312 L 59.109375 11.605469 C 58.976562 11.546875 58.78125 11.515625 58.527344 11.515625 Z M 111.273438 11.515625 C 110.917969 11.515625 110.601562 11.648438 110.3125 11.90625 C 110.027344 12.164062 109.8125 12.519531 109.671875 12.980469 L 109.652344 12.980469 L 109.652344 11.632812 L 108.675781 11.632812 L 108.675781 18.183594 L 109.652344 18.183594 L 109.652344 14.847656 C 109.652344 14.117188 109.792969 13.539062 110.074219 13.117188 C 110.355469 12.695312 110.707031 12.480469 111.121094 12.480469 C 111.445312 12.480469 111.6875 12.554688 111.859375 12.695312 L 111.859375 11.605469 C 111.726562 11.546875 111.527344 11.515625 111.273438 11.515625 Z M 47.335938 11.632812 L 47.335938 18.183594 L 48.304688 18.183594 L 48.304688 11.632812 Z M 62.785156 12.363281 C 63.414062 12.363281 63.90625 12.582031 64.246094 13.027344 C 64.585938 13.46875 64.75 14.097656 64.75 14.917969 C 64.75 15.726562 64.585938 16.355469 64.246094 16.796875 C 63.90625 17.234375 63.414062 17.449219 62.785156 17.449219 C 62.164062 17.449219 61.671875 17.230469 61.304688 16.78125 C 60.933594 16.335938 60.753906 15.71875 60.753906 14.941406 C 60.753906 14.136719 60.929688 13.507812 61.296875 13.050781 C 61.660156 12.59375 62.15625 12.363281 62.785156 12.363281 Z M 75.09375 12.363281 C 75.726562 12.363281 76.21875 12.582031 76.558594 13.027344 C 76.898438 13.46875 77.0625 14.097656 77.0625 14.917969 C 77.0625 15.726562 76.894531 16.355469 76.558594 16.796875 C 76.21875 17.234375 75.726562 17.449219 75.09375 17.449219 C 74.476562 17.449219 73.984375 17.230469 73.613281 16.78125 C 73.246094 16.335938 73.0625 15.71875 73.0625 14.941406 C 73.0625 14.136719 73.242188 13.507812 73.609375 13.050781 C 73.972656 12.59375 74.46875 12.363281 75.09375 12.363281 Z M 104.148438 12.363281 C 104.78125 12.363281 105.273438 12.582031 105.609375 13.027344 C 105.949219 13.46875 106.117188 14.097656 106.117188 14.917969 C 106.117188 15.726562 105.949219 16.355469 105.609375 16.796875 C 105.269531 17.234375 104.78125 17.449219 104.148438 17.449219 C 103.53125 17.449219 103.035156 17.230469 102.667969 16.78125 C 102.296875 16.335938 102.117188 15.71875 102.117188 14.941406 C 102.117188 14.136719 102.296875 13.507812 102.660156 13.050781 C 103.027344 12.59375 103.523438 12.363281 104.148438 12.363281 Z M 115.296875 12.363281 C 115.773438 12.363281 116.140625 12.527344 116.410156 12.863281 C 116.675781 13.199219 116.8125 13.675781 116.816406 14.28125 L 113.523438 14.28125 C 113.597656 13.710938 113.796875 13.242188 114.117188 12.890625 C 114.441406 12.535156 114.835938 12.363281 115.296875 12.363281 Z M 115.296875 12.363281 "/>
<path style=" stroke:none;fill-rule:nonzero;fill:rgb(81.568627%,24.705882%,25.882353%);fill-opacity:1;" d="M 0.1875 0 L 0.1875 12.460938 L 12.828125 12.460938 L 12.828125 0 Z M 0.1875 0 "/>
<path style=" stroke:none;fill-rule:nonzero;fill:rgb(85.490196%,46.666667%,23.529412%);fill-opacity:1;" d="M 3.707031 3.261719 L 3.707031 12.46875 L 12.839844 12.46875 L 12.839844 3.261719 Z M 3.707031 3.261719 "/>
<path style=" stroke:none;fill-rule:nonzero;fill:rgb(89.019608%,59.215686%,20.784314%);fill-opacity:1;" d="M 6.753906 6.367188 L 6.753906 12.476562 L 12.847656 12.476562 L 12.847656 6.367188 Z M 6.753906 6.367188 "/>
<path style=" stroke:none;fill-rule:nonzero;fill:rgb(23.529412%,40.784314%,67.45098%);fill-opacity:1;" d="M 0.1875 13.542969 L 0.1875 26 L 12.828125 26 L 12.828125 13.542969 Z M 0.1875 13.542969 "/>
<path style=" stroke:none;fill-rule:nonzero;fill:rgb(27.45098%,48.235294%,75.294118%);fill-opacity:1;" d="M 3.707031 13.53125 L 3.707031 22.742188 L 12.839844 22.742188 L 12.839844 13.53125 Z M 3.707031 13.53125 "/>
<path style=" stroke:none;fill-rule:nonzero;fill:rgb(51.764706%,67.45098%,86.666667%);fill-opacity:1;" d="M 6.753906 13.523438 L 6.753906 19.636719 L 12.847656 19.636719 L 12.847656 13.523438 Z M 6.753906 13.523438 "/>
<path style=" stroke:none;fill-rule:nonzero;fill:rgb(47.843137%,72.54902%,31.764706%);fill-opacity:1;" d="M 13.8125 0 L 13.8125 12.460938 L 26.453125 12.460938 L 26.453125 0 Z M 13.8125 0 "/>
<path style=" stroke:none;fill-rule:nonzero;fill:rgb(56.862745%,74.901961%,30.588235%);fill-opacity:1;" d="M 13.800781 3.261719 L 13.800781 12.46875 L 22.933594 12.46875 L 22.933594 3.261719 Z M 13.800781 3.261719 "/>
<path style=" stroke:none;fill-rule:nonzero;fill:rgb(77.254902%,84.313725%,26.27451%);fill-opacity:1;" d="M 13.792969 6.367188 L 13.792969 12.476562 L 19.886719 12.476562 L 19.886719 6.367188 Z M 13.792969 6.367188 "/>
<path style=" stroke:none;fill-rule:nonzero;fill:rgb(92.54902%,72.156863%,25.882353%);fill-opacity:1;" d="M 13.8125 13.542969 L 13.8125 26 L 26.453125 26 L 26.453125 13.542969 Z M 13.8125 13.542969 "/>
<path style=" stroke:none;fill-rule:nonzero;fill:rgb(95.294118%,82.745098%,19.607843%);fill-opacity:1;" d="M 13.800781 13.53125 L 13.800781 22.742188 L 22.933594 22.742188 L 22.933594 13.53125 Z M 13.800781 13.53125 "/>
<path style=" stroke:none;fill-rule:nonzero;fill:rgb(97.254902%,90.196078%,47.843137%);fill-opacity:1;" d="M 13.792969 13.523438 L 13.792969 19.636719 L 19.886719 19.636719 L 19.886719 13.523438 Z M 13.792969 13.523438 "/>
</g>
</svg>
