<?xml version="1.0" encoding="UTF-8"?>
<svg xmlns="http://www.w3.org/2000/svg" xmlns:xlink="http://www.w3.org/1999/xlink" width="200px" height="26px" viewBox="0 0 85 26" version="1.1">
<g id="surface1">
<path style=" stroke:none;fill-rule:nonzero;fill:rgb(0.392157%,0.392157%,0.392157%);fill-opacity:1;" d="M 17.523438 13.820312 C 17.523438 10.53125 20.234375 8.953125 20.304688 8.878906 C 18.804688 6.660156 16.386719 6.316406 15.601562 6.316406 C 13.605469 6.097656 11.683594 7.53125 10.683594 7.53125 C 9.617188 7.53125 8.128906 6.386719 6.402344 6.386719 C 4.265625 6.386719 2.195312 7.675781 1.132812 9.605469 C -1.222656 13.609375 0.492188 19.484375 2.703125 22.699219 C 3.769531 24.277344 5.058594 26.0625 6.765625 25.992188 C 8.40625 25.917969 9.046875 24.921875 11.042969 24.921875 C 13.039062 24.921875 13.597656 25.992188 15.320312 25.925781 C 17.101562 25.925781 18.175781 24.351562 19.238281 22.78125 C 20.523438 20.996094 21.019531 19.203125 21.019531 19.058594 C 20.945312 19.058594 17.597656 17.769531 17.523438 13.820312 Z M 14.320312 4.160156 C 15.175781 3.015625 15.820312 1.511719 15.675781 0.0078125 C 14.390625 0.0820312 12.820312 0.867188 11.890625 2.011719 C 11.105469 2.945312 10.320312 4.511719 10.539062 6.015625 C 11.890625 6.089844 13.390625 5.238281 14.320312 4.160156 Z M 32.941406 21.296875 L 31.238281 21.296875 L 30.269531 18.289062 L 27.011719 18.289062 L 26.101562 21.296875 L 24.449219 21.296875 L 27.707031 11.144531 L 29.738281 11.144531 Z M 29.945312 17.109375 L 29.089844 14.480469 C 28.980469 14.207031 28.816406 13.566406 28.546875 12.550781 L 28.492188 12.550781 L 28.015625 14.480469 L 27.15625 17.109375 Z M 41.292969 17.589844 C 41.292969 18.820312 40.96875 19.847656 40.273438 20.542969 C 39.683594 21.1875 38.9375 21.511719 38.023438 21.511719 C 37.058594 21.511719 36.363281 21.1875 35.9375 20.488281 L 35.9375 24.359375 L 34.332031 24.359375 L 34.332031 16.410156 L 34.277344 13.992188 L 35.722656 13.992188 L 35.832031 15.179688 L 35.886719 15.179688 C 36.425781 14.316406 37.222656 13.890625 38.347656 13.890625 C 39.207031 13.890625 39.957031 14.21875 40.488281 14.914062 C 41.03125 15.550781 41.292969 16.464844 41.292969 17.589844 Z M 39.632812 17.644531 C 39.632812 16.945312 39.46875 16.355469 39.152344 15.867188 C 38.78125 15.386719 38.347656 15.167969 37.761719 15.167969 C 37.394531 15.167969 37.011719 15.332031 36.699219 15.542969 C 36.363281 15.8125 36.136719 16.195312 36.058594 16.609375 C 36.003906 16.773438 35.949219 16.9375 35.949219 17.089844 L 35.949219 18.324219 C 35.929688 18.8125 36.101562 19.292969 36.425781 19.664062 C 36.742188 20.035156 37.175781 20.207031 37.707031 20.207031 C 38.296875 20.207031 38.773438 19.992188 39.152344 19.511719 C 39.46875 19.046875 39.632812 18.40625 39.632812 17.644531 Z M 49.6875 17.589844 C 49.6875 18.820312 49.363281 19.847656 48.667969 20.542969 C 48.082031 21.1875 47.332031 21.511719 46.417969 21.511719 C 45.453125 21.511719 44.757812 21.1875 44.335938 20.488281 L 44.28125 20.488281 L 44.28125 24.359375 L 42.683594 24.359375 L 42.683594 16.410156 L 42.628906 13.992188 L 44.074219 13.992188 L 44.179688 15.179688 L 44.234375 15.179688 C 44.777344 14.316406 45.570312 13.890625 46.699219 13.890625 C 47.558594 13.890625 48.304688 14.21875 48.839844 14.914062 C 49.425781 15.550781 49.6875 16.464844 49.6875 17.589844 Z M 48.035156 17.644531 C 48.035156 16.945312 47.871094 16.355469 47.558594 15.867188 C 47.1875 15.386719 46.753906 15.167969 46.167969 15.167969 C 45.796875 15.167969 45.417969 15.332031 45.101562 15.542969 C 44.765625 15.8125 44.542969 16.195312 44.460938 16.609375 C 44.40625 16.828125 44.40625 16.980469 44.40625 17.089844 L 44.40625 18.324219 C 44.386719 18.8125 44.558594 19.292969 44.886719 19.664062 C 45.199219 20.035156 45.632812 20.207031 46.167969 20.207031 C 46.753906 20.207031 47.230469 19.992188 47.609375 19.511719 C 47.871094 19.046875 48.035156 18.40625 48.035156 17.644531 Z M 59.058594 18.449219 C 59.058594 19.3125 58.730469 20.007812 58.144531 20.542969 C 57.503906 21.132812 56.59375 21.460938 55.355469 21.460938 C 54.289062 21.460938 53.378906 21.242188 52.738281 20.816406 L 53.109375 19.472656 C 53.804688 19.898438 54.605469 20.117188 55.464844 20.117188 C 56.050781 20.117188 56.53125 19.953125 56.910156 19.691406 C 57.234375 19.421875 57.449219 19.046875 57.449219 18.558594 C 57.460938 18.167969 57.296875 17.808594 57.027344 17.535156 C 56.753906 17.261719 56.277344 16.992188 55.636719 16.726562 C 53.867188 16.085938 52.964844 15.113281 52.964844 13.828125 C 52.945312 13.050781 53.28125 12.296875 53.875 11.789062 C 54.515625 11.246094 55.320312 10.984375 56.339844 10.984375 C 57.25 10.984375 58.046875 11.144531 58.640625 11.464844 L 58.21875 12.804688 C 57.628906 12.476562 56.960938 12.316406 56.292969 12.324219 C 55.707031 12.324219 55.273438 12.488281 54.957031 12.75 C 54.6875 13.023438 54.535156 13.292969 54.535156 13.664062 C 54.535156 14.0625 54.714844 14.433594 55.011719 14.6875 C 55.285156 14.90625 55.761719 15.167969 56.511719 15.496094 C 57.367188 15.867188 58.011719 16.25 58.433594 16.726562 C 58.886719 17.15625 59.046875 17.753906 59.058594 18.449219 Z M 64.453125 15.222656 L 62.6875 15.222656 L 62.6875 18.765625 C 62.6875 19.683594 63.011719 20.109375 63.652344 20.109375 C 63.921875 20.109375 64.191406 20.109375 64.347656 20.054688 L 64.402344 21.285156 C 64.074219 21.394531 63.652344 21.449219 63.117188 21.449219 C 62.476562 21.449219 61.992188 21.234375 61.621094 20.859375 C 61.25 20.480469 61.078125 19.792969 61.078125 18.875 L 61.078125 15.179688 L 60.015625 15.179688 L 60.015625 13.945312 L 61.078125 13.945312 L 61.078125 12.660156 L 62.6875 12.179688 L 62.6875 14 L 64.453125 14 Z M 72.480469 17.589844 C 72.480469 18.722656 72.15625 19.628906 71.515625 20.390625 C 70.820312 21.140625 69.960938 21.523438 68.84375 21.523438 C 67.777344 21.523438 66.917969 21.152344 66.277344 20.453125 C 65.636719 19.753906 65.3125 18.839844 65.3125 17.769531 C 65.3125 16.636719 65.636719 15.730469 66.277344 14.96875 C 66.917969 14.273438 67.832031 13.902344 68.949219 13.902344 C 70.015625 13.902344 70.875 14.273438 71.515625 14.96875 C 72.21875 15.605469 72.480469 16.511719 72.480469 17.589844 Z M 70.828125 17.644531 C 70.835938 17.046875 70.691406 16.449219 70.402344 15.921875 C 70.078125 15.332031 69.601562 15.0625 68.960938 15.0625 C 68.320312 15.0625 67.832031 15.332031 67.460938 15.921875 C 67.191406 16.402344 67.035156 16.992188 67.035156 17.699219 C 67.027344 18.296875 67.171875 18.894531 67.460938 19.421875 C 67.832031 20.007812 68.320312 20.28125 68.960938 20.28125 C 69.601562 20.28125 70.085938 19.953125 70.402344 19.367188 C 70.664062 18.929688 70.828125 18.339844 70.828125 17.644531 Z M 77.777344 15.441406 C 77.617188 15.386719 77.453125 15.386719 77.238281 15.386719 C 76.648438 15.386719 76.21875 15.605469 75.902344 16.03125 C 75.628906 16.402344 75.476562 16.890625 75.476562 17.480469 L 75.476562 21.351562 L 73.871094 21.351562 L 73.871094 16.355469 L 73.816406 14.046875 L 75.207031 14.046875 L 75.261719 15.441406 L 75.3125 15.441406 C 75.46875 14.980469 75.746094 14.570312 76.117188 14.261719 C 76.488281 13.992188 76.867188 13.890625 77.300781 13.890625 C 77.460938 13.890625 77.570312 13.890625 77.722656 13.945312 Z M 85 17.316406 C 85 17.589844 85 17.859375 84.945312 18.070312 L 80.082031 18.070312 C 80.082031 18.765625 80.351562 19.355469 80.777344 19.738281 C 81.234375 20.089844 81.804688 20.28125 82.382812 20.273438 C 83.078125 20.273438 83.773438 20.164062 84.359375 19.945312 L 84.628906 21.078125 C 83.933594 21.40625 83.132812 21.503906 82.164062 21.503906 C 81.039062 21.503906 80.132812 21.179688 79.492188 20.480469 C 78.851562 19.835938 78.527344 18.921875 78.527344 17.796875 C 78.527344 16.675781 78.851562 15.757812 79.441406 15.0625 C 80.082031 14.253906 80.9375 13.875 82.003906 13.875 C 83.066406 13.875 83.871094 14.246094 84.414062 15.0625 C 84.785156 15.605469 85 16.402344 85 17.316406 Z M 83.5 16.890625 C 83.5 16.410156 83.394531 15.976562 83.175781 15.660156 C 82.90625 15.234375 82.480469 14.960938 81.894531 14.960938 C 81.351562 14.960938 80.929688 15.179688 80.613281 15.605469 C 80.34375 15.976562 80.1875 16.355469 80.132812 16.890625 Z M 83.5 16.890625 "/>
</g>
</svg>
