<?xml version="1.0" encoding="UTF-8"?>
<svg xmlns="http://www.w3.org/2000/svg" xmlns:xlink="http://www.w3.org/1999/xlink" width="200px" height="26px" viewBox="0 0 204 26" version="1.1">
<defs>
<linearGradient id="linear0" gradientUnits="userSpaceOnUse" x1="70" y1="42.2" x2="42.3" y2="5.7" gradientTransform="matrix(0.272519,0,0,0.273109,0.214286,0)">
<stop offset="0" style="stop-color:rgb(3.137255%,40.392157%,87.45098%);stop-opacity:1;"/>
<stop offset="0.5" style="stop-color:rgb(2.352941%,40.784314%,88.235294%);stop-opacity:1;"/>
<stop offset="0.9" style="stop-color:rgb(0%,39.215686%,87.843137%);stop-opacity:1;"/>
</linearGradient>
<linearGradient id="linear1" gradientUnits="userSpaceOnUse" x1="15.9" y1="18.6" x2="34.9" y2="4.1" gradientTransform="matrix(0.272519,0,0,0.273109,0.214286,0)">
<stop offset="0.1" style="stop-color:rgb(0%,39.215686%,87.45098%);stop-opacity:1;"/>
<stop offset="1" style="stop-color:rgb(0%,39.215686%,87.843137%);stop-opacity:1;"/>
</linearGradient>
<linearGradient id="linear2" gradientUnits="userSpaceOnUse" x1="7.8" y1="39.8" x2="15.4" y2="20.6" gradientTransform="matrix(0.272519,0,0,0.273109,0.214286,0)">
<stop offset="0" style="stop-color:rgb(0%,44.705882%,92.54902%);stop-opacity:1;"/>
<stop offset="0.7" style="stop-color:rgb(0%,39.215686%,87.45098%);stop-opacity:1;"/>
</linearGradient>
<linearGradient id="linear3" gradientUnits="userSpaceOnUse" x1="6.7" y1="53.7" x2="7.6" y2="41.9" gradientTransform="matrix(0.272519,0,0,0.273109,0.214286,0)">
<stop offset="0.1" style="stop-color:rgb(0%,48.627451%,96.470588%);stop-opacity:1;"/>
<stop offset="1" style="stop-color:rgb(0%,44.705882%,92.54902%);stop-opacity:1;"/>
</linearGradient>
<linearGradient id="linear4" gradientUnits="userSpaceOnUse" x1="7.2" y1="60.1" x2="6.6" y2="55.4" gradientTransform="matrix(0.272519,0,0,0.273109,0.214286,0)">
<stop offset="0.1" style="stop-color:rgb(0%,49.803922%,97.647059%);stop-opacity:1;"/>
<stop offset="1" style="stop-color:rgb(0%,48.627451%,96.470588%);stop-opacity:1;"/>
</linearGradient>
<linearGradient id="linear5" gradientUnits="userSpaceOnUse" x1="6.9" y1="61.3" x2="10.8" y2="69.7" gradientTransform="matrix(0.272519,0,0,0.273109,0.214286,0)">
<stop offset="0.1" style="stop-color:rgb(0%,49.803922%,97.647059%);stop-opacity:1;"/>
<stop offset="1" style="stop-color:rgb(0%,50.980392%,98.431373%);stop-opacity:1;"/>
</linearGradient>
<linearGradient id="linear6" gradientUnits="userSpaceOnUse" x1="67.5" y1="20.9" x2="72.7" y2="13.7" gradientTransform="matrix(0.272519,0,0,0.273109,0.214286,0)">
<stop offset="0.3" style="stop-color:rgb(0%,49.803922%,97.254902%);stop-opacity:1;"/>
<stop offset="0.9" style="stop-color:rgb(0%,50.980392%,98.431373%);stop-opacity:1;"/>
</linearGradient>
<linearGradient id="linear7" gradientUnits="userSpaceOnUse" x1="107.2" y1="11.5" x2="118" y2="51.6" gradientTransform="matrix(0.272519,0,0,0.273109,0.214286,0)">
<stop offset="0" style="stop-color:rgb(0%,50.980392%,98.431373%);stop-opacity:1;"/>
<stop offset="1" style="stop-color:rgb(0%,50.588235%,98.039216%);stop-opacity:1;"/>
</linearGradient>
<linearGradient id="linear8" gradientUnits="userSpaceOnUse" x1="120.7" y1="53.1" x2="113.8" y2="67.1" gradientTransform="matrix(0.272519,0,0,0.273109,0.214286,0)">
<stop offset="0.1" style="stop-color:rgb(0%,50.588235%,98.039216%);stop-opacity:1;"/>
<stop offset="1" style="stop-color:rgb(0%,50.196078%,97.647059%);stop-opacity:1;"/>
</linearGradient>
<linearGradient id="linear9" gradientUnits="userSpaceOnUse" x1="108.3" y1="74.5" x2="114.8" y2="70.1" gradientTransform="matrix(0.272519,0,0,0.273109,0.214286,0)">
<stop offset="0" style="stop-color:rgb(0.784314%,47.843137%,95.294118%);stop-opacity:1;"/>
<stop offset="1" style="stop-color:rgb(0%,50.196078%,97.647059%);stop-opacity:1;"/>
</linearGradient>
<linearGradient id="linear10" gradientUnits="userSpaceOnUse" x1="98.2" y1="75.3" x2="107.2" y2="75.3" gradientTransform="matrix(0.272519,0,0,0.273109,0.214286,0)">
<stop offset="0" style="stop-color:rgb(1.176471%,46.666667%,93.72549%);stop-opacity:1;"/>
<stop offset="1" style="stop-color:rgb(0.784314%,47.45098%,94.509804%);stop-opacity:1;"/>
</linearGradient>
<linearGradient id="linear11" gradientUnits="userSpaceOnUse" x1="90.4" y1="70.4" x2="96.8" y2="74.2" gradientTransform="matrix(0.272519,0,0,0.273109,0.214286,0)">
<stop offset="0" style="stop-color:rgb(1.568627%,44.313725%,91.372549%);stop-opacity:1;"/>
<stop offset="1" style="stop-color:rgb(1.176471%,46.666667%,93.72549%);stop-opacity:1;"/>
</linearGradient>
<linearGradient id="linear12" gradientUnits="userSpaceOnUse" x1="70.7" y1="42.5" x2="91.3" y2="68.4" gradientTransform="matrix(0.272519,0,0,0.273109,0.214286,0)">
<stop offset="0.3" style="stop-color:rgb(3.137255%,40.392157%,87.45098%);stop-opacity:1;"/>
<stop offset="1" style="stop-color:rgb(1.568627%,44.313725%,91.372549%);stop-opacity:1;"/>
</linearGradient>
</defs>
<g id="surface1">
<path style=" stroke:none;fill-rule:nonzero;fill:rgb(0%,0%,0%);fill-opacity:1;" d="M 41.175781 0.738281 L 45.398438 0.738281 L 52.59375 13.738281 L 59.785156 0.738281 L 63.929688 0.738281 L 63.929688 22.121094 L 60.46875 22.121094 L 60.46875 5.734375 L 54.171875 17.070312 L 50.929688 17.070312 L 44.636719 5.734375 L 44.636719 22.121094 L 41.175781 22.121094 Z M 41.175781 0.738281 "/>
<path style=" stroke:none;fill-rule:evenodd;fill:rgb(0%,0%,0%);fill-opacity:1;" d="M 75.046875 22.503906 C 73.449219 22.503906 72.050781 22.148438 70.851562 21.4375 C 69.652344 20.730469 68.671875 19.71875 68.015625 18.488281 C 67.328125 17.234375 66.980469 15.792969 66.980469 14.175781 C 66.980469 12.535156 67.316406 11.089844 67.988281 9.832031 C 68.644531 8.574219 69.5625 7.582031 70.742188 6.855469 C 71.921875 6.144531 73.277344 5.789062 74.800781 5.789062 C 76.3125 5.789062 77.609375 6.152344 78.699219 6.882812 C 79.808594 7.59375 80.652344 8.59375 81.234375 9.886719 C 81.832031 11.179688 82.132812 12.699219 82.132812 14.449219 L 82.132812 15.402344 L 70.414062 15.402344 C 70.632812 16.695312 71.160156 17.714844 71.996094 18.460938 C 72.832031 19.207031 73.894531 19.582031 75.183594 19.582031 C 76.203125 19.582031 77.082031 19.4375 77.828125 19.144531 C 78.574219 18.835938 79.273438 18.371094 79.925781 17.753906 L 81.75 19.992188 C 79.933594 21.667969 77.699219 22.503906 75.046875 22.503906 Z M 77.582031 9.804688 C 76.855469 9.078125 75.902344 8.710938 74.722656 8.710938 C 73.59375 8.710938 72.640625 9.085938 71.859375 9.832031 C 71.097656 10.578125 70.613281 11.589844 70.414062 12.863281 L 78.808594 12.863281 C 78.699219 11.570312 78.289062 10.550781 77.582031 9.804688 Z M 77.582031 9.804688 "/>
<path style=" stroke:none;fill-rule:nonzero;fill:rgb(0%,0%,0%);fill-opacity:1;" d="M 86.304688 9.011719 L 83.140625 9.011719 L 83.140625 6.171875 L 86.304688 6.171875 L 86.304688 1.503906 L 89.628906 1.503906 L 89.628906 6.171875 L 94.453125 6.171875 L 94.453125 9.011719 L 89.628906 9.011719 L 89.628906 16.167969 C 89.628906 17.371094 89.835938 18.214844 90.253906 18.707031 C 90.652344 19.21875 91.34375 19.472656 92.324219 19.472656 C 92.707031 19.492188 93.078125 19.480469 93.441406 19.445312 C 93.75 19.410156 94.085938 19.355469 94.453125 19.28125 L 94.453125 22.09375 C 94.035156 22.203125 93.605469 22.292969 93.171875 22.367188 C 92.679688 22.441406 92.1875 22.476562 91.699219 22.476562 C 88.101562 22.476562 86.304688 20.511719 86.304688 16.578125 Z M 86.304688 9.011719 "/>
<path style=" stroke:none;fill-rule:evenodd;fill:rgb(0%,0%,0%);fill-opacity:1;" d="M 111.8125 22.121094 L 108.539062 22.121094 L 108.539062 19.882812 C 107.96875 20.703125 107.207031 21.355469 106.332031 21.820312 C 105.425781 22.277344 104.398438 22.503906 103.253906 22.503906 C 101.855469 22.503906 100.609375 22.140625 99.519531 21.410156 C 98.449219 20.703125 97.601562 19.71875 96.984375 18.460938 C 96.351562 17.207031 96.03125 15.765625 96.03125 14.148438 C 96.03125 12.507812 96.351562 11.0625 96.984375 9.804688 C 97.621094 8.566406 98.492188 7.582031 99.601562 6.855469 C 100.726562 6.144531 102.007812 5.789062 103.445312 5.789062 C 104.535156 5.789062 105.515625 6.007812 106.386719 6.445312 C 107.230469 6.855469 107.96875 7.457031 108.539062 8.21875 L 108.539062 6.171875 L 111.8125 6.171875 Z M 108.457031 11.769531 C 108.113281 10.859375 107.558594 10.140625 106.796875 9.613281 C 106.015625 9.105469 105.125 8.847656 104.125 8.847656 C 102.691406 8.847656 101.554688 9.320312 100.71875 10.269531 C 99.867188 11.234375 99.4375 12.527344 99.4375 14.148438 C 99.4375 15.785156 99.847656 17.085938 100.664062 18.050781 C 101.480469 19.015625 102.589844 19.5 103.988281 19.5 C 105.007812 19.5 105.925781 19.226562 106.742188 18.679688 C 107.53125 18.1875 108.132812 17.425781 108.457031 16.550781 Z M 108.457031 11.769531 "/>
<path style=" stroke:none;fill-rule:evenodd;fill:rgb(0%,0%,0%);fill-opacity:1;" d="M 139.308594 5.707031 C 140.214844 7.363281 140.671875 9.265625 140.671875 11.414062 C 140.671875 13.417969 140.242188 15.230469 139.390625 16.851562 C 138.515625 18.453125 137.363281 19.738281 135.929688 20.703125 C 137.34375 22.484375 138.527344 24.253906 139.472656 26 L 135.546875 26 C 134.820312 24.632812 134.003906 23.3125 133.09375 22.039062 C 132.058594 22.339844 130.96875 22.503906 129.90625 22.503906 C 128.34375 22.503906 126.898438 22.230469 125.574219 21.683594 C 124.292969 21.136719 123.148438 20.375 122.167969 19.363281 C 121.183594 18.351562 120.421875 17.179688 119.933594 15.867188 C 119.386719 14.519531 119.125 13.035156 119.140625 11.414062 C 119.140625 9.8125 119.40625 8.339844 119.933594 6.992188 C 120.421875 5.679688 121.183594 4.480469 122.167969 3.46875 C 123.148438 2.484375 124.292969 1.691406 125.574219 1.175781 C 126.898438 0.628906 128.34375 0.355469 129.90625 0.355469 C 131.996094 0.355469 133.859375 0.828125 135.492188 1.773438 C 137.101562 2.703125 138.410156 4.070312 139.308594 5.707031 Z M 123.691406 15.484375 C 124.308594 16.667969 125.15625 17.589844 126.226562 18.242188 C 127.296875 18.917969 128.523438 19.253906 129.90625 19.253906 C 131.304688 19.253906 132.539062 18.917969 133.613281 18.242188 C 134.664062 17.589844 135.5 16.667969 136.121094 15.484375 C 136.738281 14.320312 137.046875 12.964844 137.046875 11.414062 C 137.046875 9.886719 136.738281 8.53125 136.121094 7.347656 C 135.5 6.164062 134.664062 5.242188 133.613281 4.589844 C 132.539062 3.933594 131.304688 3.605469 129.90625 3.605469 C 128.523438 3.605469 127.296875 3.933594 126.226562 4.589844 C 125.15625 5.242188 124.308594 6.164062 123.691406 7.347656 C 123.074219 8.53125 122.765625 9.886719 122.765625 11.414062 C 122.765625 12.964844 123.074219 14.320312 123.691406 15.484375 Z M 123.691406 15.484375 "/>
<path style=" stroke:none;fill-rule:nonzero;fill:rgb(0%,0%,0%);fill-opacity:1;" d="M 157.730469 22.121094 L 154.433594 22.121094 L 154.433594 19.828125 C 153.214844 21.613281 151.527344 22.503906 149.363281 22.503906 C 147.492188 22.503906 146.058594 21.914062 145.058594 20.730469 C 144.058594 19.546875 143.558594 17.851562 143.558594 15.648438 L 143.558594 6.171875 L 146.882812 6.171875 L 146.882812 15.265625 C 146.882812 16.742188 147.136719 17.835938 147.648438 18.542969 C 148.171875 19.234375 148.992188 19.582031 150.097656 19.582031 C 151.0625 19.582031 151.917969 19.335938 152.660156 18.84375 C 153.40625 18.335938 153.988281 17.625 154.40625 16.714844 L 154.40625 6.171875 L 157.730469 6.171875 Z M 157.730469 22.121094 "/>
<path style=" stroke:none;fill-rule:evenodd;fill:rgb(0%,0%,0%);fill-opacity:1;" d="M 168.683594 22.503906 C 167.085938 22.503906 165.679688 22.148438 164.460938 21.4375 C 163.261719 20.730469 162.28125 19.71875 161.628906 18.488281 C 160.953125 17.234375 160.617188 15.792969 160.617188 14.175781 C 160.617188 12.535156 160.945312 11.089844 161.601562 9.832031 C 162.273438 8.574219 163.199219 7.582031 164.378906 6.855469 C 165.542969 6.144531 166.886719 5.789062 168.414062 5.789062 C 169.9375 5.789062 171.246094 6.152344 172.335938 6.882812 C 173.425781 7.59375 174.273438 8.59375 174.871094 9.886719 C 175.453125 11.179688 175.742188 12.699219 175.742188 14.449219 L 175.742188 15.402344 L 164.050781 15.402344 C 164.253906 16.695312 164.777344 17.714844 165.632812 18.460938 C 166.46875 19.207031 167.523438 19.582031 168.792969 19.582031 C 169.828125 19.582031 170.71875 19.4375 171.464844 19.144531 C 172.210938 18.835938 172.910156 18.371094 173.5625 17.753906 L 175.390625 19.992188 C 173.554688 21.667969 171.320312 22.503906 168.683594 22.503906 Z M 171.191406 9.804688 C 170.484375 9.078125 169.539062 8.710938 168.359375 8.710938 C 167.214844 8.710938 166.261719 9.085938 165.496094 9.832031 C 164.734375 10.578125 164.253906 11.589844 164.050781 12.863281 L 172.445312 12.863281 C 172.335938 11.570312 171.917969 10.550781 171.191406 9.804688 Z M 171.191406 9.804688 "/>
<path style=" stroke:none;fill-rule:nonzero;fill:rgb(0%,0%,0%);fill-opacity:1;" d="M 189.398438 21.136719 C 188.214844 22.050781 186.636719 22.503906 184.65625 22.503906 C 182.964844 22.503906 181.503906 22.203125 180.265625 21.601562 C 179.015625 21.019531 178.085938 20.226562 177.488281 19.226562 L 179.722656 17.261719 C 180.195312 17.988281 180.839844 18.554688 181.65625 18.953125 C 182.476562 19.371094 183.457031 19.582031 184.601562 19.582031 C 186.726562 19.582031 187.789062 18.960938 187.789062 17.726562 C 187.789062 17.195312 187.617188 16.769531 187.269531 16.441406 C 186.925781 16.132812 186.34375 15.914062 185.527344 15.785156 L 182.476562 15.238281 C 181.019531 14.984375 179.914062 14.464844 179.148438 13.683594 C 178.386719 12.917969 178.003906 11.925781 178.003906 10.707031 C 178.003906 9.230469 178.597656 8.046875 179.777344 7.15625 C 180.957031 6.246094 182.546875 5.789062 184.546875 5.789062 C 186 5.789062 187.308594 6.089844 188.46875 6.691406 C 189.613281 7.292969 190.46875 8.066406 191.03125 9.011719 L 188.714844 10.761719 C 188.332031 10.125 187.761719 9.621094 187 9.257812 C 186.234375 8.894531 185.355469 8.710938 184.355469 8.710938 C 183.390625 8.710938 182.65625 8.867188 182.148438 9.175781 C 181.640625 9.503906 181.382812 9.960938 181.382812 10.542969 C 181.382812 11.050781 181.539062 11.441406 181.847656 11.714844 C 182.175781 11.988281 182.710938 12.191406 183.457031 12.316406 L 186.890625 12.945312 C 188.269531 13.183594 189.332031 13.699219 190.078125 14.503906 C 190.804688 15.304688 191.167969 16.304688 191.167969 17.507812 C 191.167969 19.035156 190.578125 20.246094 189.398438 21.136719 Z M 189.398438 21.136719 "/>
<path style=" stroke:none;fill-rule:nonzero;fill:rgb(0%,0%,0%);fill-opacity:1;" d="M 195.636719 9.011719 L 192.449219 9.011719 L 192.449219 6.171875 L 195.636719 6.171875 L 195.636719 1.503906 L 198.960938 1.503906 L 198.960938 6.171875 L 203.785156 6.171875 L 203.785156 9.011719 L 198.960938 9.011719 L 198.960938 16.167969 C 198.960938 17.371094 199.160156 18.214844 199.5625 18.707031 C 199.980469 19.21875 200.679688 19.472656 201.660156 19.472656 C 202.023438 19.492188 202.394531 19.480469 202.777344 19.445312 C 203.085938 19.410156 203.421875 19.355469 203.785156 19.28125 L 203.785156 22.09375 C 203.367188 22.203125 202.941406 22.292969 202.503906 22.367188 C 202.015625 22.441406 201.515625 22.476562 201.007812 22.476562 C 197.425781 22.476562 195.636719 20.511719 195.636719 16.578125 Z M 195.636719 9.011719 "/>
<path style=" stroke:none;fill-rule:nonzero;fill:url(#linear0);" d="M 17.601562 4.753906 C 18.128906 5.425781 18.671875 6.191406 19.234375 7.046875 C 19.746094 7.773438 20.261719 8.574219 20.789062 9.449219 L 20.816406 9.476562 L 18.527344 12.917969 L 18.527344 12.890625 L 18.253906 12.453125 C 14.195312 5.597656 12.3125 3.6875 9.890625 3.6875 C 9.890625 3.6875 9.878906 3.6875 9.863281 3.6875 L 9.914062 0 C 9.914062 0 9.925781 0 9.941406 0 C 12.640625 0 14.902344 1.3125 17.601562 4.753906 Z M 17.601562 4.753906 "/>
<path style=" stroke:none;fill-rule:nonzero;fill:url(#linear1);" d="M 9.941406 0 L 9.890625 3.6875 C 9.890625 3.6875 9.878906 3.6875 9.863281 3.6875 C 8.5 3.6875 7.246094 4.671875 6.238281 6.199219 L 3.046875 4.480469 C 3.046875 4.480469 3.046875 4.46875 3.046875 4.453125 C 4.792969 1.773438 7.191406 0.0273438 9.914062 0 C 9.914062 0 9.925781 0 9.941406 0 Z M 9.941406 0 "/>
<path style=" stroke:none;fill-rule:nonzero;fill:url(#linear2);" d="M 6.238281 6.199219 C 5.28125 7.648438 4.546875 9.558594 4.164062 11.605469 C 4.164062 11.625 4.164062 11.644531 4.164062 11.660156 L 0.597656 10.816406 C 0.597656 10.796875 0.597656 10.789062 0.597656 10.789062 C 1.058594 8.4375 1.902344 6.253906 3.046875 4.480469 C 3.046875 4.480469 3.046875 4.46875 3.046875 4.453125 Z M 6.238281 6.199219 "/>
<path style=" stroke:none;fill-rule:nonzero;fill:url(#linear3);" d="M 4.164062 11.660156 C 3.964844 12.699219 3.867188 13.753906 3.867188 14.828125 C 3.867188 14.902344 3.867188 14.976562 3.867188 15.046875 C 3.867188 15.066406 3.867188 15.074219 3.867188 15.074219 L 0.214844 14.746094 C 0.214844 14.746094 0.214844 14.738281 0.214844 14.71875 C 0.214844 13.410156 0.351562 12.097656 0.597656 10.816406 C 0.597656 10.796875 0.597656 10.789062 0.597656 10.789062 L 4.164062 11.605469 C 4.164062 11.625 4.164062 11.644531 4.164062 11.660156 Z M 4.164062 11.660156 "/>
<path style=" stroke:none;fill-rule:nonzero;fill:url(#linear4);" d="M 4.003906 16.25 L 0.433594 17.070312 C 0.414062 17.070312 0.40625 17.058594 0.40625 17.042969 C 0.277344 16.296875 0.214844 15.53125 0.214844 14.746094 C 0.214844 14.746094 0.214844 14.738281 0.214844 14.71875 L 3.867188 15.046875 C 3.867188 15.066406 3.867188 15.074219 3.867188 15.074219 C 3.882812 15.457031 3.929688 15.839844 4.003906 16.222656 C 4.003906 16.242188 4.003906 16.25 4.003906 16.25 Z M 4.003906 16.25 "/>
<path style=" stroke:none;fill-rule:nonzero;fill:url(#linear5);" d="M 4.847656 18.132812 L 2.011719 20.59375 C 1.996094 20.59375 1.984375 20.582031 1.984375 20.566406 C 1.222656 19.691406 0.675781 18.488281 0.433594 17.070312 C 0.414062 17.070312 0.40625 17.058594 0.40625 17.042969 L 4.003906 16.222656 C 4.003906 16.242188 4.003906 16.25 4.003906 16.25 C 4.136719 17.070312 4.4375 17.699219 4.820312 18.132812 C 4.839844 18.132812 4.847656 18.132812 4.847656 18.132812 Z M 4.847656 18.132812 "/>
<path style=" stroke:none;fill-rule:nonzero;fill:rgb(0%,50.980392%,98.431373%);fill-opacity:1;" d="M 17.136719 10.597656 C 16.128906 12.398438 14.65625 14.992188 14.65625 14.992188 C 11.113281 21.191406 9.125 22.503906 6.347656 22.503906 C 4.519531 22.503906 3.046875 21.820312 2.011719 20.59375 C 1.996094 20.59375 1.984375 20.582031 1.984375 20.566406 L 4.820312 18.132812 C 4.839844 18.132812 4.847656 18.132812 4.847656 18.132812 C 5.28125 18.597656 5.828125 18.84375 6.480469 18.84375 C 8.089844 18.84375 9.097656 17.835938 11.960938 13.328125 C 11.960938 13.328125 13.269531 11.253906 15.421875 7.949219 C 15.9375 8.710938 16.511719 9.585938 17.136719 10.597656 Z M 17.136719 10.597656 "/>
<path style=" stroke:none;fill-rule:nonzero;fill:url(#linear6);" d="M 21.199219 4.480469 C 21.199219 4.480469 21.1875 4.488281 21.171875 4.507812 C 20.570312 5.132812 19.917969 5.980469 19.261719 7.046875 C 18.683594 6.191406 18.128906 5.425781 17.601562 4.753906 C 18.109375 4.058594 18.65625 3.394531 19.234375 2.757812 C 19.234375 2.757812 19.246094 2.75 19.261719 2.730469 Z M 21.199219 4.480469 "/>
<path style=" stroke:none;fill-rule:nonzero;fill:rgb(0%,50.980392%,98.431373%);fill-opacity:1;" d="M 29.726562 2.429688 L 27.492188 4.425781 C 27.476562 4.425781 27.464844 4.425781 27.464844 4.425781 C 26.511719 3.441406 25.421875 2.894531 24.277344 2.894531 C 23.1875 2.894531 22.207031 3.414062 21.199219 4.480469 C 21.199219 4.480469 21.1875 4.488281 21.171875 4.507812 L 19.234375 2.757812 C 19.234375 2.757812 19.246094 2.75 19.261719 2.730469 C 20.789062 1.121094 22.480469 0 24.496094 0 C 26.402344 0 28.203125 0.902344 29.699219 2.402344 C 29.71875 2.421875 29.726562 2.429688 29.726562 2.429688 Z M 29.726562 2.429688 "/>
<path style=" stroke:none;fill-rule:nonzero;fill:url(#linear7);" d="M 34.0625 14.285156 L 30.816406 14.257812 C 30.816406 14.257812 30.816406 14.246094 30.816406 14.230469 C 30.710938 10.023438 29.402344 6.390625 27.492188 4.425781 C 27.476562 4.425781 27.464844 4.425781 27.464844 4.425781 L 29.699219 2.402344 C 29.71875 2.421875 29.726562 2.429688 29.726562 2.429688 C 32.261719 4.996094 33.953125 9.367188 34.0625 14.230469 C 34.0625 14.246094 34.0625 14.265625 34.0625 14.285156 Z M 34.0625 14.285156 "/>
<path style=" stroke:none;fill-rule:nonzero;fill:url(#linear8);" d="M 34.0625 14.613281 C 34.0625 16.90625 33.597656 18.761719 32.726562 20.128906 C 32.707031 20.128906 32.699219 20.136719 32.699219 20.15625 L 30.300781 17.644531 C 30.300781 17.625 30.300781 17.617188 30.300781 17.617188 C 30.65625 16.933594 30.816406 16.003906 30.816406 14.855469 C 30.816406 14.65625 30.816406 14.457031 30.816406 14.257812 C 30.816406 14.257812 30.816406 14.246094 30.816406 14.230469 L 34.0625 14.230469 C 34.0625 14.246094 34.0625 14.265625 34.0625 14.285156 C 34.0625 14.394531 34.0625 14.503906 34.0625 14.613281 Z M 34.0625 14.613281 "/>
<path style=" stroke:none;fill-rule:nonzero;fill:url(#linear9);" d="M 32.726562 20.128906 C 32.707031 20.128906 32.699219 20.136719 32.699219 20.15625 C 32.679688 20.171875 32.664062 20.199219 32.644531 20.238281 C 32.609375 20.273438 32.582031 20.320312 32.5625 20.375 C 32.070312 21.03125 31.445312 21.574219 30.710938 21.957031 C 30.691406 21.957031 30.671875 21.96875 30.65625 21.984375 C 30.601562 22.003906 30.554688 22.023438 30.519531 22.039062 C 30.390625 22.09375 30.253906 22.148438 30.109375 22.203125 L 28.992188 18.734375 C 29.566406 18.570312 30 18.1875 30.300781 17.644531 C 30.300781 17.625 30.300781 17.617188 30.300781 17.617188 Z M 32.726562 20.128906 "/>
<path style=" stroke:none;fill-rule:nonzero;fill:url(#linear10);" d="M 29.019531 18.734375 L 30.136719 22.203125 C 29.511719 22.394531 28.855469 22.503906 28.230469 22.503906 C 27.464844 22.503906 26.785156 22.394531 26.15625 22.175781 L 27.273438 18.652344 C 27.601562 18.789062 27.957031 18.84375 28.3125 18.84375 C 28.546875 18.84375 28.785156 18.808594 29.019531 18.734375 Z M 29.019531 18.734375 "/>
<path style=" stroke:none;fill-rule:nonzero;fill:url(#linear11);" d="M 27.328125 18.652344 L 26.183594 22.203125 C 25.230469 21.875 24.359375 21.273438 23.460938 20.320312 C 23.460938 20.300781 23.449219 20.292969 23.433594 20.292969 L 26.023438 17.589844 C 26.039062 17.605469 26.050781 17.617188 26.050781 17.617188 C 26.511719 18.160156 26.894531 18.488281 27.328125 18.652344 Z M 27.328125 18.652344 "/>
<path style=" stroke:none;fill-rule:nonzero;fill:url(#linear12);" d="M 26.050781 17.617188 L 23.460938 20.320312 C 23.460938 20.300781 23.449219 20.292969 23.433594 20.292969 C 22.371094 19.144531 21.28125 17.507812 19.917969 15.265625 L 18.527344 12.917969 L 18.527344 12.890625 L 20.789062 9.449219 L 20.816406 9.476562 L 22.777344 12.753906 C 24.304688 15.183594 25.257812 16.6875 26.023438 17.589844 C 26.039062 17.605469 26.050781 17.617188 26.050781 17.617188 Z M 26.050781 17.617188 "/>
</g>
</svg>
